<?xml version="1.0" encoding="utf-8"?>
<!-- Generator: Adobe Illustrator 26.0.0, SVG Export Plug-In . SVG Version: 6.00 Build 0)  -->
<svg version="1.1" id="Capa_1" xmlns="http://www.w3.org/2000/svg" xmlns:xlink="http://www.w3.org/1999/xlink" x="0px" y="0px"
	 viewBox="0 0 64 64" style="enable-background:new 0 0 64 64;" xml:space="preserve">
<style type="text/css">
	.st0{fill:#1DBEB4;}
</style>
<g id="XMLID_00000078034785659808139830000000187104989636816804_">
	<path id="XMLID_00000149340168975551746220000016058216381345654659_" class="st0" d="M1.69,40.84c0-0.84,0.28-1.6,0.64-2.32
		c0.74-1.47,1.47-2.94,2.26-4.39c0.82-1.5,0.73-2.93-0.08-4.41c-0.84-1.53-1.62-3.09-2.37-4.66c-0.49-1.02-0.63-2.1-0.16-3.18
		c0.4-0.91,1.11-1.52,1.96-1.97c1.46-0.77,2.94-1.52,4.43-2.22c1.62-0.76,2.54-1.97,2.78-3.75c0.23-1.72,0.5-3.43,0.81-5.14
		c0.24-1.33,0.91-2.4,2.23-2.93c0.81-0.32,1.65-0.31,2.5-0.17c1.67,0.27,3.34,0.54,5,0.83c1.47,0.25,2.74-0.13,3.8-1.19
		c1.18-1.18,2.34-2.38,3.53-3.56c0.35-0.35,0.73-0.67,1.14-0.94c1.23-0.84,2.57-0.81,3.8,0.09c0.43,0.32,0.84,0.67,1.22,1.05
		c1.07,1.06,2.13,2.13,3.17,3.21c1.18,1.22,2.58,1.6,4.23,1.29c1.73-0.32,3.46-0.61,5.2-0.83c1.51-0.19,2.81,0.24,3.67,1.61
		c0.36,0.58,0.56,1.21,0.66,1.88c0.26,1.68,0.52,3.36,0.77,5.04c0.25,1.68,1.21,2.77,2.72,3.49c1.65,0.78,3.28,1.62,4.88,2.52
		c0.96,0.54,1.61,1.39,1.77,2.53c0.12,0.86-0.07,1.69-0.45,2.45c-0.76,1.54-1.55,3.08-2.36,4.6c-0.76,1.43-0.82,2.86-0.07,4.31
		c0.81,1.57,1.64,3.13,2.42,4.71c0.47,0.95,0.7,1.96,0.37,3.02c-0.31,0.99-1.01,1.68-1.89,2.15c-1.58,0.85-3.18,1.67-4.81,2.44
		c-1.51,0.72-2.35,1.87-2.58,3.52c-0.25,1.76-0.54,3.51-0.82,5.27c-0.39,2.4-2.23,3.38-4.52,3.13c-1.79-0.19-3.55-0.57-5.33-0.84
		c-1.4-0.22-2.63,0.14-3.65,1.16c-1.17,1.17-2.32,2.35-3.49,3.51c-0.36,0.35-0.75,0.68-1.16,0.97c-1.24,0.89-2.54,0.9-3.79,0.02
		c-0.42-0.3-0.82-0.63-1.19-0.99c-1.13-1.11-2.24-2.23-3.34-3.37c-1.12-1.15-2.45-1.55-4.02-1.27c-1.76,0.31-3.53,0.6-5.3,0.86
		c-2.03,0.31-3.73-0.75-4.23-2.69c-0.26-1.04-0.38-2.11-0.56-3.17c-0.18-1.08-0.29-2.18-0.52-3.25c-0.26-1.25-1.05-2.12-2.18-2.69
		c-1.64-0.83-3.3-1.63-4.92-2.5c-1.03-0.54-1.84-1.31-2.11-2.52C1.72,41.3,1.71,41.07,1.69,40.84z M30.21,43.04
		c0.34,0.01,0.75-0.18,1.1-0.52c0.55-0.54,1.09-1.08,1.64-1.62c4.73-4.73,9.46-9.45,14.18-14.18c0.09-0.09,0.17-0.17,0.24-0.27
		c0.34-0.43,0.41-0.9,0.18-1.41c-0.43-0.95-1.14-1.62-2.07-2.08c-0.53-0.26-1.01-0.23-1.47,0.14c-0.15,0.12-0.3,0.26-0.44,0.4
		c-4.2,4.2-8.39,8.4-12.58,12.6c-0.11,0.11-0.22,0.21-0.35,0.3c-0.34,0.24-0.61,0.23-0.93-0.03c-0.12-0.1-0.23-0.2-0.34-0.31
		c-2.02-2.02-4.03-4.05-6.05-6.07c-0.17-0.17-0.36-0.33-0.56-0.46c-0.32-0.22-0.69-0.33-1.06-0.14c-0.85,0.44-1.61,0.98-2.15,1.79
		c-0.37,0.55-0.35,1.12-0.05,1.68c0.11,0.21,0.28,0.39,0.45,0.56c1.18,1.18,2.37,2.36,3.55,3.54c1.83,1.83,3.65,3.65,5.48,5.48
		C29.32,42.77,29.7,43.03,30.21,43.04z"/>
</g>
</svg>
